<svg xmlns="http://www.w3.org/2000/svg" style="display:none">
  <symbol id="planet" viewBox="0 0 24 24">
    <circle cx="12" cy="12" r="9" fill="none" stroke="currentColor" stroke-width="1.5"/>
    <ellipse cx="12" cy="12" rx="14" ry="4" fill="none" stroke="currentColor" stroke-width="1.2" transform="rotate(-20 12 12)"/>
    <circle cx="16" cy="8" r="2" fill="currentColor"/>
  </symbol>
  <symbol id="search" viewBox="0 0 24 24">
    <circle cx="10.5" cy="10.5" r="6.5" fill="none" stroke="currentColor" stroke-width="1.8"/>
    <line x1="15.5" y1="15.5" x2="21" y2="21" stroke="currentColor" stroke-width="1.8" stroke-linecap="round"/>
  </symbol>
  <symbol id="heart" viewBox="0 0 24 24">
    <path d="M12 21.35l-1.45-1.32C5.4 15.36 2 12.28 2 8.5 2 5.42 4.42 3 7.5 3c1.74 0 3.41.81 4.5 2.09C13.09 3.81 14.76 3 16.5 3 19.58 3 22 5.42 22 8.5c0 3.78-3.4 6.86-8.55 11.54L12 21.35z" fill="none" stroke="currentColor" stroke-width="1.5"/>
  </symbol>
  <symbol id="bluesky" viewBox="0 0 16 16">
    <path d="M3.468 1.948C5.303 3.325 7.276 6.118 8 7.616c.725-1.498 2.698-4.29 4.532-5.668C13.855.955 16 .186 16 2.632c0 .489-.28 4.105-.444 4.692-.572 2.04-2.653 2.561-4.504 2.246 3.236.551 4.06 2.375 2.281 4.2-3.376 3.464-4.852-.87-5.23-1.98-.07-.204-.103-.3-.103-.218 0-.081-.033.014-.102.218-.379 1.11-1.855 5.444-5.231 1.98-1.778-1.825-.955-3.65 2.28-4.2-1.85.315-3.932-.205-4.503-2.246C.28 6.737 0 3.12 0 2.632 0 .186 2.145.955 3.468 1.948"/>
  </symbol>
  <symbol id="x-twitter" viewBox="0 0 24 24">
    <path d="M19.633 7.997c0.013 0.175 0.013 0.349 0.013 0.523 0 5.325-4.053 11.461-11.46 11.461-2.282 0-4.402-0.661-6.186-1.809 0.324 0.037 0.636 0.05 0.973 0.05 1.883 0 3.616-0.636 5.001-1.721-1.771-0.037-3.255-1.197-3.767-2.793 0.249 0.037 0.499 0.062 0.761 0.062 0.361 0 0.724-0.05 1.061-0.137-1.847-0.374-3.23-1.995-3.23-3.953v-0.05c0.537 0.299 1.16 0.486 1.82 0.511C3.534 9.419 2.823 8.184 2.823 6.787c0-0.748 0.199-1.434 0.548-2.032 1.983 2.443 4.964 4.04 8.306 4.215-0.062-0.3-0.1-0.611-0.1-0.923 0-2.22 1.796-4.028 4.028-4.028 1.16 0 2.207 0.486 2.943 1.272 0.91-0.175 1.782-0.512 2.556-0.973-0.299 0.935-0.936 1.721-1.771 2.22 0.811-0.088 1.597-0.312 2.319-0.624C21.104 6.712 20.419 7.423 19.633 7.997z"/>
  </symbol>
  <symbol id="linkedin" viewBox="0 0 16 16">
    <path d="M0 1.146C0 .513.526 0 1.175 0h13.65C15.474 0 16 .513 16 1.146v13.708c0 .633-.526 1.146-1.175 1.146H1.175C.526 16 0 15.487 0 14.854zm4.943 12.248V6.169H2.542v7.225zm-1.2-8.212c.837 0 1.358-.554 1.358-1.248-.015-.709-.52-1.248-1.342-1.248S2.4 3.226 2.4 3.934c0 .694.521 1.248 1.327 1.248zm4.908 8.212V9.359c0-.216.016-.432.08-.586.173-.431.568-.878 1.232-.878.869 0 1.216.662 1.216 1.634v3.865h2.401V9.25c0-2.22-1.184-3.252-2.764-3.252-1.274 0-1.845.7-2.165 1.193v.025h-.016l.016-.025V6.169h-2.4c.03.678 0 7.225 0 7.225z"/>
  </symbol>
  <symbol id="github" viewBox="0 0 16 16">
    <path d="M8 0C3.58 0 0 3.58 0 8c0 3.54 2.29 6.53 5.47 7.59.4.07.55-.17.55-.38 0-.19-.01-.82-.01-1.49-2.01.37-2.53-.49-2.69-.94-.09-.23-.48-.94-.82-1.13-.28-.15-.68-.52-.01-.53.63-.01 1.08.58 1.23.82.72 1.21 1.87.87 2.33.66.07-.52.28-.87.51-1.07-1.78-.2-3.64-.89-3.64-3.95 0-.87.31-1.59.82-2.15-.08-.2-.36-1.02.08-2.12 0 0 .67-.21 2.2.82.64-.18 1.32-.27 2-.27s1.36.09 2 .27c1.53-1.04 2.2-.82 2.2-.82.44 1.1.16 1.92.08 2.12.51.56.82 1.27.82 2.15 0 3.07-1.87 3.75-3.65 3.95.29.25.54.73.54 1.48 0 1.07-.01 1.93-.01 2.2 0 .21.15.46.55.38A8.01 8.01 0 0 0 16 8c0-4.42-3.58-8-8-8"/>
  </symbol>
</svg>
